<?xml version="1.0" encoding="UTF-8" standalone="no"?>
<svg
   height="200"
   viewBox="0 0 200.00001 200"
   width="200"
   version="1.1"
   id="svg1"
   sodipodi:docname="logo_new.svg"
   xml:space="preserve"
   inkscape:version="1.3.2 (091e20ef0f, 2023-11-25)"
   inkscape:export-filename="logo_new.png"
   inkscape:export-xdpi="40.799999"
   inkscape:export-ydpi="40.799999"
   xmlns:inkscape="http://www.inkscape.org/namespaces/inkscape"
   xmlns:sodipodi="http://sodipodi.sourceforge.net/DTD/sodipodi-0.dtd"
   xmlns="http://www.w3.org/2000/svg"
   xmlns:svg="http://www.w3.org/2000/svg"><sodipodi:namedview
     id="namedview1"
     pagecolor="#ffffff"
     bordercolor="#666666"
     borderopacity="1.0"
     inkscape:showpageshadow="2"
     inkscape:pageopacity="0.0"
     inkscape:pagecheckerboard="0"
     inkscape:deskcolor="#d1d1d1"
     inkscape:zoom="0.85516229"
     inkscape:cx="215.74852"
     inkscape:cy="365.42771"
     inkscape:window-width="1500"
     inkscape:window-height="931"
     inkscape:window-x="0"
     inkscape:window-y="0"
     inkscape:window-maximized="1"
     inkscape:current-layer="svg1" /><defs
     id="defs1"><inkscape:path-effect
       effect="fillet_chamfer"
       id="path-effect717"
       is_visible="true"
       lpeversion="1"
       nodesatellites_param="F,0,0,1,0,0,0,1 @ F,0,0,1,0,0,0,1 @ F,0,0,1,0,0,0,1 @ F,0,0,1,0,0,0,1 @ F,0,0,1,0,0,0,1 @ F,0,0,1,0,0,0,1 @ F,0,0,1,0,0,0,1 @ F,0,0,1,0,0,0,1 @ F,0,0,1,0,0,0,1 @ F,0,0,1,0,0,0,1 @ F,0,0,1,0,0,0,1 @ F,0,0,1,0,0,0,1 @ F,0,0,1,0,0,0,1 @ F,0,0,1,0,0,0,1 @ F,0,0,1,0,0,0,1 @ F,0,0,1,0,0,0,1 @ F,0,0,1,0,0,0,1 @ F,0,0,1,0,0,0,1 @ F,0,0,1,0,0,0,1 @ F,0,0,1,0,0,0,1 @ F,0,0,1,0,0,0,1 @ F,0,0,1,0,0,0,1 @ F,0,0,1,0,0,0,1 @ F,0,0,1,0,0,0,1"
       radius="0"
       unit="px"
       method="auto"
       mode="F"
       chamfer_steps="1"
       flexible="false"
       use_knot_distance="true"
       apply_no_radius="true"
       apply_with_radius="true"
       only_selected="false"
       hide_knots="false" /><inkscape:path-effect
       effect="bend_path"
       id="path-effect716"
       is_visible="true"
       lpeversion="1"
       bendpath="M 69.925781,131.63519 H 145.12578"
       prop_scale="1"
       scale_y_rel="false"
       vertical="false"
       hide_knot="false" /><inkscape:path-effect
       effect="fillet_chamfer"
       id="path-effect715"
       is_visible="true"
       lpeversion="1"
       nodesatellites_param="C,0,0,1,0,2,0,1 @ C,0,0,1,0,2,0,1 @ C,0,0,1,0,2,0,1 @ C,0,0,1,0,2,0,1 @ C,0,0,1,0,2,0,1 @ C,0,0,1,0,2,0,1 @ C,0,0,1,0,2,0,1 @ C,0,0,1,0,2,0,1 @ C,0,0,1,0,2,0,1 @ C,0,0,1,0,2,0,1 @ C,0,0,1,0,2,0,1 @ C,0,0,1,0,2,0,1 @ C,0,0,1,0,2,0,1 @ C,0,0,1,0,2,0,1 @ C,0,0,1,0,2,0,1 @ C,0,0,1,0,2,0,1 @ C,0,0,1,0,2,0,1 @ C,0,0,1,0,2,0,1 @ C,0,0,1,0,2,0,1 @ C,0,0,1,0,2,0,1 @ C,0,0,1,0,2,0,1 @ C,0,0,1,0,2,0,1 @ C,0,0,1,0,2,0,1 @ C,0,0,1,0,2,0,1"
       radius="2"
       unit="px"
       method="auto"
       mode="F"
       chamfer_steps="1"
       flexible="false"
       use_knot_distance="true"
       apply_no_radius="true"
       apply_with_radius="true"
       only_selected="false"
       hide_knots="false" /><inkscape:path-effect
       effect="fillet_chamfer"
       id="path-effect714"
       is_visible="true"
       lpeversion="1"
       nodesatellites_param="F,0,0,1,0,1,0,1 @ F,0,0,1,0,1,0,1 @ F,0,0,1,0,1,0,1 @ F,0,0,1,0,1,0,1 @ F,0,0,1,0,1,0,1 @ F,0,0,1,0,1,0,1 @ F,0,0,1,0,1,0,1 @ F,0,0,1,0,1,0,1 @ F,0,0,1,0,1,0,1 @ F,0,0,1,0,1,0,1 @ F,0,0,1,0,1,0,1 @ F,0,0,1,0,1,0,1"
       radius="1"
       unit="px"
       method="auto"
       mode="F"
       chamfer_steps="1"
       flexible="false"
       use_knot_distance="true"
       apply_no_radius="true"
       apply_with_radius="true"
       only_selected="false"
       hide_knots="false" /><rect
       x="61.924995"
       y="42.535183"
       width="239.14281"
       height="205.31306"
       id="rect714" /><inkscape:path-effect
       effect="perspective-envelope"
       up_left_point="-39.151172,116.17528"
       up_right_point="5.9688281,116.17528"
       down_left_point="-39.151172,162.63928"
       down_right_point="10.74293,171.30891"
       id="path-effect3"
       is_visible="true"
       lpeversion="1"
       deform_type="perspective"
       horizontal_mirror="false"
       vertical_mirror="false"
       overflow_perspective="false" /><rect
       x="-43.950653"
       y="85.946976"
       width="156.26364"
       height="133.66608"
       id="rect2" /><inkscape:path-effect
       effect="perspective-envelope"
       up_left_point="-35.200027,-75.752031"
       up_right_point="215.68013,-75.752031"
       down_left_point="-35.200027,-23.85867"
       down_right_point="203.06589,-1.0565249"
       id="path-effect2"
       is_visible="true"
       lpeversion="1"
       deform_type="perspective"
       horizontal_mirror="false"
       vertical_mirror="false"
       overflow_perspective="false" /><rect
       x="-44.832142"
       y="-93.970924"
       width="301.71271"
       height="115.93334"
       id="rect1" /><filter
       inkscape:collect="always"
       style="color-interpolation-filters:sRGB"
       id="filter2"
       x="-0.027426039"
       y="-0.036568054"
       width="1.0548521"
       height="1.0731361"><feGaussianBlur
         inkscape:collect="always"
         stdDeviation="1.9516052"
         id="feGaussianBlur2" /></filter></defs><path
     d="m 40.790626,37.698841 c -14.593128,0 -26.684567,12.091438 -26.684567,26.684566 v 74.716773 c 0,14.59313 12.091439,26.68457 26.684567,26.68457 H 158.20271 c 14.59313,0 26.68457,-12.09144 26.68457,-26.68457 V 64.383407 c 0,-14.593128 -12.09144,-26.684566 -26.68457,-26.684566 z m 0,21.347653 h 10.673826 c 2.960322,0 5.336913,2.376591 5.336913,5.336913 v 10.673826 c 0,2.960322 -2.376591,5.336913 -5.336913,5.336913 H 40.790626 c -2.960322,0 -5.336913,-2.376591 -5.336913,-5.336913 V 64.383407 c 0,-2.585073 1.834563,-4.753183 4.252858,-5.211827 0.333557,-0.08326 0.708848,-0.125097 1.084055,-0.125086 z m 32.021479,0 h 10.673826 c 2.960322,0 5.336913,2.376591 5.336913,5.336913 v 10.673826 c 0,2.960322 -2.376591,5.336913 -5.336913,5.336913 H 72.812105 c -2.960322,0 -5.336914,-2.376591 -5.336914,-5.336913 V 64.383407 c 0,-2.960322 2.376592,-5.336913 5.336914,-5.336913 z m 32.021475,0 h 10.67382 c 2.96033,0 5.33692,2.376591 5.33692,5.336913 v 10.673826 c 0,2.960322 -2.37659,5.336913 -5.33692,5.336913 h -10.67382 c -2.96032,0 -5.33691,-2.376591 -5.33691,-5.336913 V 64.383407 c 0,-2.960322 2.37659,-5.336913 5.33691,-5.336913 z m 32.02148,0 h 10.67382 c 2.96032,0 5.33692,2.376591 5.33692,5.336913 v 10.673826 c 0,2.960322 -2.3766,5.336913 -5.33692,5.336913 h -10.67382 c -2.96032,0 -5.33692,-2.376591 -5.33692,-5.336913 V 64.383407 c 0,-2.960322 2.3766,-5.336913 5.33692,-5.336913 z M 51.464452,91.067972 h 10.673827 c 2.960321,0 5.336912,2.37659 5.336912,5.33691 v 10.673828 c 0,2.96032 -2.376591,5.33691 -5.336912,5.33691 H 51.464452 c -2.960322,0 -5.336913,-2.37659 -5.336913,-5.33691 V 96.404882 c 0,-2.96032 2.376591,-5.33691 5.336913,-5.33691 z m 32.021479,0 h 10.673826 c 2.960322,0 5.336913,2.37659 5.336913,5.33691 v 10.673828 c 0,2.96032 -2.376591,5.33691 -5.336913,5.33691 H 83.485931 c -2.960321,0 -5.336913,-2.37659 -5.336913,-5.33691 V 96.404882 c 0,-2.96032 2.376592,-5.33691 5.336913,-5.33691 z m 32.021469,0 h 10.67383 c 2.96032,0 5.33691,2.37659 5.33691,5.33691 v 10.673828 c 0,2.96032 -2.37659,5.33691 -5.33691,5.33691 H 115.5074 c -2.96032,0 -5.33691,-2.37659 -5.33691,-5.33691 V 96.404882 c 0,-2.96032 2.37659,-5.33691 5.33691,-5.33691 z m 32.02148,0 h 10.67383 c 2.96032,0 5.33691,2.37659 5.33691,5.33691 v 10.673828 c 0,2.96032 -2.37659,5.33691 -5.33691,5.33691 h -10.67383 c -2.96032,0 -5.33691,-2.37659 -5.33691,-5.33691 V 96.404882 c 0,-2.96032 2.37659,-5.33691 5.33691,-5.33691 z M 40.790626,123.08945 h 10.673826 c 2.960322,0 5.336913,2.37659 5.336913,5.33691 v 10.67382 c 0,2.96033 -2.376591,5.33692 -5.336913,5.33692 H 40.790626 c -2.960322,0 -5.336913,-2.37659 -5.336913,-5.33692 v -10.67382 c 0,-2.96032 2.376591,-5.33691 5.336913,-5.33691 z m 32.021479,0 H 115.5074 c 2.96033,0 5.33692,2.37659 5.33692,5.33691 v 10.67382 c 0,2.96033 -2.37659,5.33692 -5.33692,5.33692 H 72.812105 c -2.960322,0 -5.336914,-2.37659 -5.336914,-5.33692 v -10.67382 c 0,-2.96032 2.376592,-5.33691 5.336914,-5.33691 z m 64.042955,0 h 10.67382 c 2.96032,0 5.33692,2.37659 5.33692,5.33691 v 10.67382 c 0,2.96033 -2.3766,5.33692 -5.33692,5.33692 h -10.67382 c -2.96032,0 -5.33692,-2.37659 -5.33692,-5.33692 v -10.67382 c 0,-2.96032 2.3766,-5.33691 5.33692,-5.33691 z m 0,0"
     fill="#2e3436"
     id="path1"
     style="mix-blend-mode:normal;stroke-width:10.6738;filter:url(#filter2)"
     transform="matrix(1.1432158,0,0,1.1342212,-13.374471,-34.769587)" /><g
     id="g713"
     style="fill:#1c71d8"
     transform="translate(-0.71676643,-0.71676651)" /><g
     id="g4"
     transform="matrix(0.87956766,0,0,0.87956766,92.304427,99.453224)"
     style="fill:#ffffff;fill-opacity:1"><g
       id="g6"
       transform="matrix(1.1620146,0,0,1.1620146,-19.977874,-18.257531)"
       style="fill:#ffffff;fill-opacity:1"><circle
         style="opacity:0.972057;fill:#ffffff;fill-opacity:1;stroke:#3581df;stroke-width:16;stroke-dasharray:none;stroke-opacity:1"
         id="path2"
         cx="60.51442"
         cy="49.895973"
         r="54.794674" /><g
         id="g5"
         transform="translate(0.35264996,0.98128684)"
         style="fill:#ffffff;fill-opacity:1"><rect
           style="opacity:0.972057;fill:#ffffff;fill-opacity:1;stroke:#3581df;stroke-width:16;stroke-dasharray:none;stroke-opacity:1"
           id="rect4"
           width="67.842194"
           height="0.96480149"
           x="26.872236"
           y="49.634457" /><rect
           style="opacity:0.972057;fill:#ffffff;fill-opacity:1;stroke:#3581df;stroke-width:16;stroke-dasharray:none;stroke-opacity:1"
           id="rect5"
           width="67.842194"
           height="0.96480149"
           x="15.684948"
           y="-61.114788"
           transform="rotate(90)" /></g></g></g></svg>
